<?xml version="1.0" standalone="no"?>
<!DOCTYPE svg PUBLIC "-//W3C//DTD SVG 20010904//EN"
 "http://www.w3.org/TR/2001/REC-SVG-20010904/DTD/svg10.dtd">
<svg version="1.0" xmlns="http://www.w3.org/2000/svg"
 width="384.000000pt" height="384.000000pt" viewBox="0 0 384.000000 384.000000"
 preserveAspectRatio="xMidYMid meet">
<metadata>
Created by potrace 1.11, written by Peter Selinger 2001-2013
</metadata>
<g transform="translate(0.000000,384.000000) scale(0.100000,-0.100000)"
fill="#000000" stroke="none">
<path d="M510 1840 l0 -640 900 0 900 0 0 640 0 640 -235 0 -235 0 0 -440 0
-440 -95 0 -95 0 0 440 0 440 -240 0 -240 0 0 -440 0 -440 -95 0 -95 0 0 440
0 440 -235 0 -235 0 0 -640z"/>
<path d="M2932 2189 c-265 -40 -453 -246 -453 -499 0 -183 83 -332 241 -432
127 -81 337 -104 496 -54 192 61 320 197 359 381 20 93 19 127 -5 220 -24 95
-56 152 -127 227 -118 123 -321 186 -511 157z m167 -395 c82 -69 53 -221 -45
-240 -64 -12 -119 26 -134 93 -29 126 89 223 179 147z"/>
</g>
</svg>
